<?xml version="1.0" encoding="UTF-8" standalone="no"?>
<svg
   xmlns:dc="http://purl.org/dc/elements/1.1/"
   xmlns:cc="http://creativecommons.org/ns#"
   xmlns:rdf="http://www.w3.org/1999/02/22-rdf-syntax-ns#"
   xmlns:svg="http://www.w3.org/2000/svg"
   xmlns="http://www.w3.org/2000/svg"
   xmlns:sodipodi="http://sodipodi.sourceforge.net/DTD/sodipodi-0.dtd"
   xmlns:inkscape="http://www.inkscape.org/namespaces/inkscape"
   sodipodi:docname="gears(3).svg"
   id="svg3690"
   version="1.1"
   class="uil-gears"
   preserveAspectRatio="xMidYMid"
   viewBox="0 0 100 100"
   height="200px"
   width="200px"
   inkscape:version="0.92.1 r15371">
  <metadata
     id="metadata3696">
    <rdf:RDF>
      <cc:Work
         rdf:about="">
        <dc:format>image/svg+xml</dc:format>
        <dc:type
           rdf:resource="http://purl.org/dc/dcmitype/StillImage" />
      </cc:Work>
    </rdf:RDF>
  </metadata>

  <g
     transform="matrix(0.67289587,0.18030191,-0.18030191,0.67289587,37.581173,19.552704)"
     id="g3684">
    <path
       d="M 79.9,52.6 C 80,51.8 80,50.9 80,50 80,49.1 80,48.2 79.9,47.4 L 74.8,47 C 74.5,44.6 73.9,42.4 73,40.3 l 4.2,-2.9 C 76.5,35.8 75.6,34.3 74.6,32.9 L 70,35 c -1.4,-1.9 -3.1,-3.5 -4.9,-4.9 l 2.2,-4.6 c -1.4,-1 -2.9,-1.9 -4.5,-2.6 l -3,4.1 C 57.7,26.1 55.4,25.5 53.1,25.2 L 52.7,20.1 C 51.8,20 50.9,20 50,20 c -0.9,0 -1.8,0 -2.6,0.1 L 47,25.2 c -2.4,0.3 -4.6,0.9 -6.7,1.8 l -2.9,-4.1 c -1.6,0.7 -3.1,1.6 -4.5,2.6 l 2.1,4.6 c -1.9,1.4 -3.5,3.1 -5,4.9 l -4.5,-2.1 c -1,1.4 -1.9,2.9 -2.6,4.5 l 4.1,2.9 c -0.9,2.1 -1.5,4.4 -1.8,6.8 l -5,0.4 C 20,48.2 20,49.1 20,50 c 0,0.9 0,1.8 0.1,2.6 l 5,0.4 c 0.3,2.4 0.9,4.7 1.8,6.8 l -4.1,2.9 c 0.7,1.6 1.6,3.1 2.6,4.5 l 4.5,-2.1 c 1.4,1.9 3.1,3.5 5,4.9 l -2.1,4.6 c 1.4,1 2.9,1.9 4.5,2.6 l 2.9,-4.1 c 2.1,0.9 4.4,1.5 6.7,1.8 l 0.4,5.1 c 0.9,0 1.8,0 2.7,0 0.9,0 1.8,0 2.6,-0.1 L 53,74.8 c 2.3,-0.3 4.6,-0.9 6.7,-1.8 l 2.9,4.2 c 1.6,-0.7 3.1,-1.6 4.5,-2.6 L 65,69.9 c 1.9,-1.4 3.5,-3 4.9,-4.9 l 4.6,2.2 c 1,-1.4 1.9,-2.9 2.6,-4.5 L 73,59.8 c 0.9,-2.1 1.5,-4.4 1.8,-6.7 z M 50,65 c -8.3,0 -15,-6.7 -15,-15 0,-8.3 6.7,-15 15,-15 8.3,0 15,6.7 15,15 0,8.3 -6.7,15 -15,15 z"
       id="path3682"
       inkscape:connector-curvature="0"
       style="fill:#999999">
      <animateTransform
         attributeName="transform"
         type="rotate"
         from="0 50 50"
         to="90 50 50"
         dur="1s"
         repeatCount="indefinite" />
    </path>
  </g>
  <g
     transform="matrix(0.61169285,0,0,0.61169285,5.4363002,5.4363002)"
     id="g3688">
    <path
       d="M 79.9,52.6 C 80,51.8 80,50.9 80,50 80,49.1 80,48.2 79.9,47.4 L 74.8,47 C 74.5,44.6 73.9,42.4 73,40.3 l 4.2,-2.9 C 76.5,35.8 75.6,34.3 74.6,32.9 L 70,35 c -1.4,-1.9 -3.1,-3.5 -4.9,-4.9 l 2.2,-4.6 c -1.4,-1 -2.9,-1.9 -4.5,-2.6 l -3,4.1 C 57.7,26.1 55.4,25.5 53.1,25.2 L 52.7,20.1 C 51.8,20 50.9,20 50,20 c -0.9,0 -1.8,0 -2.6,0.1 L 47,25.2 c -2.4,0.3 -4.6,0.9 -6.7,1.8 l -2.9,-4.1 c -1.6,0.7 -3.1,1.6 -4.5,2.6 l 2.1,4.6 c -1.9,1.4 -3.5,3.1 -5,4.9 l -4.5,-2.1 c -1,1.4 -1.9,2.9 -2.6,4.5 l 4.1,2.9 c -0.9,2.1 -1.5,4.4 -1.8,6.8 l -5,0.4 C 20,48.2 20,49.1 20,50 c 0,0.9 0,1.8 0.1,2.6 l 5,0.4 c 0.3,2.4 0.9,4.7 1.8,6.8 l -4.1,2.9 c 0.7,1.6 1.6,3.1 2.6,4.5 l 4.5,-2.1 c 1.4,1.9 3.1,3.5 5,4.9 l -2.1,4.6 c 1.4,1 2.9,1.9 4.5,2.6 l 2.9,-4.1 c 2.1,0.9 4.4,1.5 6.7,1.8 l 0.4,5.1 c 0.9,0 1.8,0 2.7,0 0.9,0 1.8,0 2.6,-0.1 L 53,74.8 c 2.3,-0.3 4.6,-0.9 6.7,-1.8 l 2.9,4.2 c 1.6,-0.7 3.1,-1.6 4.5,-2.6 L 65,69.9 c 1.9,-1.4 3.5,-3 4.9,-4.9 l 4.6,2.2 c 1,-1.4 1.9,-2.9 2.6,-4.5 L 73,59.8 c 0.9,-2.1 1.5,-4.4 1.8,-6.7 z M 50,65 c -8.3,0 -15,-6.7 -15,-15 0,-8.3 6.7,-15 15,-15 8.3,0 15,6.7 15,15 0,8.3 -6.7,15 -15,15 z"
       id="path3686"
       inkscape:connector-curvature="0"
       style="fill:#666666">
      <animateTransform
         attributeName="transform"
         type="rotate"
         from="90 50 50"
         to="0 50 50"
         dur="1s"
         repeatCount="indefinite" />
    </path>
  </g>
</svg>
