<svg width="200" height="200" xmlns="http://www.w3.org/2000/svg">
 <!-- Created with Method Draw - http://github.com/duopixel/Method-Draw/ -->

 <g>
  <title>background</title>
  <rect fill="#ffffff" id="canvas_background" height="202" width="202" y="-1" x="-1"/>
 </g>
 <g>
  <title>Layer 1</title>

  <g id="svg_17">
   <path fill="#666666" id="svg_16" d="m125.71933,99.999451c0,-14.259415 -11.601082,-25.860497 -25.860504,-25.860497s-25.860497,11.601082 -25.860497,25.860497s11.601082,25.860504 25.860497,25.860504s25.860504,-11.601082 25.860504,-25.860504zm-23.321945,-0.039581c0,1.355209 -1.097931,2.454178 -2.454178,2.454178c-1.355209,0 -2.454178,-1.098969 -2.454178,-2.454178l0,-12.76358c0,-1.355209 1.098969,-2.454178 2.454178,-2.454178c1.355209,0 2.454178,1.097923 2.454178,2.454178l0,12.76358zm14.160454,0.082291c0,9.207321 -7.490654,16.697968 -16.699013,16.697968s-16.699005,-7.490646 -16.699005,-16.697968c0,-4.463554 1.738541,-8.659401 4.896889,-11.812531c0.479164,-0.479172 1.106255,-0.717712 1.734375,-0.717712s1.257301,0.239578 1.736465,0.719788c0.958336,0.959381 0.957298,2.512512 -0.002083,3.470848c-2.228134,2.227089 -3.456261,5.18856 -3.456261,8.339607c0,6.500023 5.288559,11.788582 11.789619,11.788582s11.789619,-5.288559 11.789619,-11.788582c0,-3.148964 -1.224998,-6.10939 -3.452095,-8.336479c-0.958328,-0.959381 -0.957291,-2.512512 0.001045,-3.471886c0.959373,-0.959381 2.512505,-0.957298 3.471886,0.001038c3.1521,3.154175 4.888557,7.347939 4.888557,11.807327z"/>
  </g>
 </g>
</svg>